<svg width="455" height="349" viewBox="0 0 455 349" fill="none" xmlns="http://www.w3.org/2000/svg">
<g clip-path="url(#clip0)">
<path d="M146.406 54.2939H145.478V103.947H146.406V54.2939Z" fill="#3F3D56"/>
<path d="M146.406 118.728H145.478V162.418H146.406V118.728Z" fill="#3F3D56"/>
<path d="M216.013 169.379H144.085V170.307H216.013V169.379Z" fill="#3F3D56"/>
<path d="M114.386 181.908H113.458V221.353H114.386V181.908Z" fill="#3F3D56"/>
<path d="M230.863 228.313H121.811V229.242H230.863V228.313Z" fill="#3F3D56"/>
<path d="M321.818 22.7383H320.89V69.6075H321.818V22.7383Z" fill="#3F3D56"/>
<path d="M313.928 77.0325H245.696V77.9606H313.928V77.0325Z" fill="#3F3D56"/>
<path d="M238.751 84.4575H237.823V147.105H238.751V84.4575Z" fill="#3F3D56"/>
<path d="M145.942 119.261C144.381 119.261 142.856 118.798 141.559 117.932C140.261 117.065 139.25 115.833 138.653 114.391C138.056 112.95 137.9 111.364 138.204 109.833C138.509 108.303 139.26 106.897 140.363 105.794C141.467 104.691 142.872 103.939 144.403 103.635C145.933 103.331 147.519 103.487 148.961 104.084C150.402 104.681 151.634 105.692 152.501 106.989C153.368 108.287 153.831 109.812 153.831 111.372C153.828 113.464 152.996 115.469 151.517 116.948C150.038 118.427 148.033 119.259 145.942 119.261ZM145.942 104.411C144.565 104.411 143.219 104.82 142.074 105.585C140.93 106.349 140.038 107.437 139.511 108.709C138.984 109.98 138.846 111.38 139.115 112.73C139.383 114.081 140.046 115.321 141.02 116.294C141.993 117.268 143.233 117.931 144.584 118.199C145.934 118.468 147.333 118.33 148.605 117.803C149.877 117.276 150.964 116.384 151.729 115.239C152.494 114.095 152.902 112.749 152.902 111.372C152.9 109.527 152.166 107.758 150.861 106.453C149.556 105.148 147.787 104.414 145.942 104.411Z" fill="#3F3D56"/>
<path d="M114.386 236.666C112.826 236.666 111.3 236.204 110.003 235.337C108.706 234.47 107.695 233.238 107.098 231.796C106.5 230.355 106.344 228.769 106.649 227.238C106.953 225.708 107.704 224.302 108.808 223.199C109.911 222.096 111.317 221.344 112.847 221.04C114.377 220.736 115.963 220.892 117.405 221.489C118.846 222.086 120.078 223.097 120.945 224.394C121.812 225.692 122.275 227.217 122.275 228.777C122.273 230.869 121.441 232.874 119.962 234.353C118.483 235.832 116.478 236.664 114.386 236.666ZM114.386 221.817C113.009 221.817 111.663 222.225 110.519 222.99C109.374 223.754 108.482 224.842 107.955 226.114C107.428 227.385 107.29 228.785 107.559 230.135C107.828 231.486 108.49 232.726 109.464 233.699C110.437 234.673 111.678 235.336 113.028 235.604C114.378 235.873 115.778 235.735 117.05 235.208C118.322 234.681 119.409 233.789 120.174 232.645C120.939 231.5 121.347 230.154 121.347 228.777C121.345 226.932 120.611 225.163 119.306 223.858C118.001 222.553 116.231 221.819 114.386 221.817Z" fill="#3F3D56"/>
<path d="M146.405 177.268C150.506 177.268 153.83 173.944 153.83 169.843C153.83 165.742 150.506 162.418 146.405 162.418C142.305 162.418 138.98 165.742 138.98 169.843C138.98 173.944 142.305 177.268 146.405 177.268Z" fill="#3740C7"/>
<path d="M415.092 110.908H338.06V111.836H415.092V110.908Z" fill="#3F3D56"/>
<path d="M331.099 118.728H330.171V162.418H331.099V118.728Z" fill="#3F3D56"/>
<path d="M322.745 169.379H261.026V170.307H322.745V169.379Z" fill="#3F3D56"/>
<path d="M433.654 173.555H369.615V174.483H433.654V173.555Z" fill="#3F3D56"/>
<path d="M363.118 181.908H362.189V221.353H363.118V181.908Z" fill="#3F3D56"/>
<path d="M354.765 228.313H245.713V229.242H354.765V228.313Z" fill="#3F3D56"/>
<path d="M238.751 192.581H237.823V221.353H238.751V192.581Z" fill="#3F3D56"/>
<path d="M330.635 118.797C334.735 118.797 338.06 115.473 338.06 111.372C338.06 107.272 334.735 103.948 330.635 103.948C326.534 103.948 323.21 107.272 323.21 111.372C323.21 115.473 326.534 118.797 330.635 118.797Z" fill="#3740C7"/>
<path d="M321.353 84.9213C319.792 84.9213 318.267 84.4586 316.97 83.5918C315.673 82.725 314.661 81.4929 314.064 80.0514C313.467 78.6099 313.311 77.0237 313.615 75.4934C313.92 73.9631 314.671 72.5574 315.774 71.4542C316.878 70.3509 318.283 69.5995 319.814 69.2951C321.344 68.9907 322.93 69.147 324.372 69.7441C325.813 70.3412 327.045 71.3523 327.912 72.6496C328.779 73.9469 329.242 75.4722 329.242 77.0324C329.239 79.124 328.407 81.1292 326.928 82.6081C325.45 84.0871 323.444 84.919 321.353 84.9213ZM321.353 70.0717C319.976 70.0717 318.63 70.4799 317.486 71.2448C316.341 72.0096 315.449 73.0968 314.922 74.3687C314.395 75.6406 314.257 77.0402 314.526 78.3904C314.794 79.7407 315.457 80.981 316.431 81.9545C317.404 82.9279 318.645 83.5909 319.995 83.8595C321.345 84.1281 322.745 83.9902 324.017 83.4634C325.288 82.9365 326.376 82.0443 327.14 80.8996C327.905 79.755 328.314 78.4092 328.314 77.0324C328.311 75.187 327.577 73.4176 326.273 72.1127C324.968 70.8077 323.198 70.0737 321.353 70.0717Z" fill="#3F3D56"/>
<path d="M238.288 84.9213C236.728 84.9213 235.203 84.4586 233.905 83.5918C232.608 82.725 231.597 81.4929 231 80.0514C230.403 78.6099 230.247 77.0237 230.551 75.4934C230.855 73.9631 231.607 72.5574 232.71 71.4542C233.813 70.3509 235.219 69.5995 236.749 69.2951C238.28 68.9907 239.866 69.147 241.307 69.7441C242.749 70.3412 243.981 71.3523 244.848 72.6496C245.715 73.9469 246.177 75.4722 246.177 77.0324C246.175 79.124 245.343 81.1292 243.864 82.6081C242.385 84.0871 240.38 84.919 238.288 84.9213ZM238.288 70.0717C236.912 70.0717 235.566 70.4799 234.421 71.2448C233.276 72.0096 232.384 73.0968 231.857 74.3687C231.331 75.6406 231.193 77.0402 231.461 78.3904C231.73 79.7407 232.393 80.981 233.366 81.9545C234.34 82.9279 235.58 83.5909 236.93 83.8595C238.281 84.1281 239.68 83.9902 240.952 83.4634C242.224 82.9365 243.311 82.0443 244.076 80.8996C244.841 79.755 245.249 78.4092 245.249 77.0324C245.247 75.187 244.513 73.4176 243.208 72.1127C241.903 70.8077 240.134 70.0737 238.288 70.0717Z" fill="#3F3D56"/>
<path d="M362.19 182.372C360.629 182.372 359.104 181.909 357.807 181.042C356.51 180.176 355.498 178.944 354.901 177.502C354.304 176.061 354.148 174.474 354.452 172.944C354.757 171.414 355.508 170.008 356.611 168.905C357.715 167.802 359.12 167.05 360.651 166.746C362.181 166.441 363.767 166.598 365.209 167.195C366.65 167.792 367.882 168.803 368.749 170.1C369.616 171.398 370.079 172.923 370.079 174.483C370.076 176.575 369.244 178.58 367.765 180.059C366.286 181.538 364.281 182.37 362.19 182.372ZM362.19 167.522C360.813 167.522 359.467 167.931 358.322 168.695C357.178 169.46 356.286 170.547 355.759 171.819C355.232 173.091 355.094 174.491 355.363 175.841C355.631 177.191 356.294 178.432 357.268 179.405C358.241 180.379 359.481 181.042 360.832 181.31C362.182 181.579 363.582 181.441 364.853 180.914C366.125 180.387 367.212 179.495 367.977 178.35C368.742 177.206 369.15 175.86 369.15 174.483C369.148 172.638 368.414 170.868 367.109 169.563C365.804 168.258 364.035 167.524 362.19 167.522Z" fill="#3F3D56"/>
<path d="M362.189 236.202C366.29 236.202 369.614 232.878 369.614 228.777C369.614 224.677 366.29 221.353 362.189 221.353C358.089 221.353 354.765 224.677 354.765 228.777C354.765 232.878 358.089 236.202 362.189 236.202Z" fill="#3740C7"/>
<path d="M238.288 236.666C236.728 236.666 235.203 236.204 233.905 235.337C232.608 234.47 231.597 233.238 231 231.796C230.403 230.355 230.247 228.769 230.551 227.238C230.855 225.708 231.607 224.302 232.71 223.199C233.813 222.096 235.219 221.344 236.749 221.04C238.28 220.736 239.866 220.892 241.307 221.489C242.749 222.086 243.981 223.097 244.848 224.394C245.715 225.692 246.177 227.217 246.177 228.777C246.175 230.869 245.343 232.874 243.864 234.353C242.385 235.832 240.38 236.664 238.288 236.666ZM238.288 221.817C236.912 221.817 235.566 222.225 234.421 222.99C233.276 223.754 232.384 224.842 231.857 226.114C231.331 227.385 231.193 228.785 231.461 230.135C231.73 231.486 232.393 232.726 233.366 233.699C234.34 234.673 235.58 235.336 236.93 235.604C238.281 235.873 239.68 235.735 240.952 235.208C242.224 234.681 243.311 233.789 244.076 232.645C244.841 231.5 245.249 230.154 245.249 228.777C245.247 226.932 244.513 225.163 243.208 223.858C241.903 222.553 240.134 221.819 238.288 221.817Z" fill="#3F3D56"/>
<path d="M330.17 177.732C328.61 177.732 327.085 177.269 325.787 176.402C324.49 175.535 323.479 174.303 322.882 172.862C322.285 171.42 322.128 169.834 322.433 168.304C322.737 166.773 323.489 165.368 324.592 164.264C325.695 163.161 327.101 162.41 328.631 162.105C330.161 161.801 331.748 161.957 333.189 162.554C334.631 163.151 335.863 164.163 336.73 165.46C337.596 166.757 338.059 168.282 338.059 169.843C338.057 171.934 337.225 173.94 335.746 175.418C334.267 176.897 332.262 177.729 330.17 177.732ZM330.17 162.882C328.793 162.882 327.448 163.29 326.303 164.055C325.158 164.82 324.266 165.907 323.739 167.179C323.212 168.451 323.075 169.85 323.343 171.201C323.612 172.551 324.275 173.791 325.248 174.765C326.222 175.738 327.462 176.401 328.812 176.67C330.162 176.938 331.562 176.801 332.834 176.274C334.106 175.747 335.193 174.855 335.958 173.71C336.723 172.565 337.131 171.219 337.131 169.843C337.129 167.997 336.395 166.228 335.09 164.923C333.785 163.618 332.016 162.884 330.17 162.882Z" fill="#3F3D56"/>
<path d="M114.387 158.706C112.551 158.706 110.757 159.25 109.23 160.27C107.704 161.29 106.514 162.739 105.812 164.435C105.109 166.131 104.926 167.997 105.284 169.797C105.642 171.598 106.526 173.251 107.824 174.549C109.122 175.847 110.776 176.731 112.576 177.089C114.376 177.447 116.242 177.264 117.938 176.561C119.634 175.859 121.084 174.669 122.103 173.143C123.123 171.617 123.668 169.822 123.668 167.987C123.66 165.527 122.68 163.171 120.941 161.432C119.202 159.693 116.846 158.713 114.387 158.706ZM114.387 161.49C114.937 161.49 115.476 161.653 115.933 161.959C116.391 162.265 116.748 162.7 116.959 163.209C117.17 163.717 117.225 164.277 117.117 164.817C117.01 165.357 116.745 165.854 116.355 166.243C115.966 166.632 115.47 166.898 114.93 167.005C114.39 167.112 113.83 167.057 113.321 166.847C112.812 166.636 112.377 166.279 112.071 165.821C111.765 165.363 111.602 164.825 111.602 164.274C111.605 163.537 111.899 162.83 112.42 162.308C112.942 161.786 113.649 161.492 114.387 161.49ZM114.387 174.894C113.287 174.889 112.205 174.616 111.234 174.098C110.264 173.58 109.434 172.833 108.818 171.922C108.863 170.066 112.53 169.044 114.387 169.044C116.243 169.044 119.911 170.066 119.955 171.922C119.338 172.832 118.508 173.579 117.538 174.096C116.568 174.614 115.486 174.888 114.387 174.894Z" fill="#3F3D56"/>
<path d="M146.406 32.0195C144.57 32.0195 142.776 32.5639 141.25 33.5837C139.724 34.6035 138.534 36.053 137.831 37.7489C137.129 39.4448 136.945 41.3109 137.303 43.1112C137.661 44.9116 138.545 46.5653 139.843 47.8633C141.141 49.1612 142.795 50.0452 144.595 50.4033C146.396 50.7614 148.262 50.5776 149.958 49.8751C151.654 49.1727 153.103 47.9831 154.123 46.4568C155.143 44.9306 155.687 43.1362 155.687 41.3006C155.68 38.8413 154.7 36.4848 152.961 34.7458C151.222 33.0069 148.865 32.0267 146.406 32.0195ZM146.406 34.8038C146.957 34.8038 147.495 34.9671 147.953 35.2731C148.411 35.579 148.768 36.0139 148.978 36.5226C149.189 37.0314 149.244 37.5912 149.137 38.1313C149.029 38.6715 148.764 39.1676 148.375 39.557C147.985 39.9464 147.489 40.2115 146.949 40.319C146.409 40.4264 145.849 40.3713 145.341 40.1605C144.832 39.9498 144.397 39.5929 144.091 39.135C143.785 38.6772 143.622 38.1388 143.622 37.5882C143.624 36.8505 143.918 36.1437 144.44 35.6221C144.962 35.1004 145.668 34.8063 146.406 34.8038ZM146.406 48.2078C145.306 48.2028 144.224 47.9295 143.254 47.4116C142.283 46.8938 141.454 46.147 140.837 45.2361C140.882 43.3799 144.55 42.3581 146.406 42.3581C148.262 42.3581 151.93 43.3799 151.975 45.2361C151.357 46.1463 150.528 46.8926 149.558 47.4104C148.587 47.9281 147.506 48.2018 146.406 48.2078Z" fill="#3F3D56"/>
<path d="M321.353 0C319.518 0 317.723 0.544326 316.197 1.56414C314.671 2.58395 313.481 4.03345 312.779 5.72934C312.076 7.42523 311.892 9.29133 312.251 11.0917C312.609 12.892 313.493 14.5457 314.791 15.8437C316.089 17.1417 317.742 18.0256 319.543 18.3837C321.343 18.7419 323.209 18.5581 324.905 17.8556C326.601 17.1531 328.05 15.9636 329.07 14.4373C330.09 12.911 330.634 11.1167 330.634 9.28104C330.627 6.82177 329.647 4.46528 327.908 2.7263C326.169 0.987331 323.813 0.00719856 321.353 0ZM321.353 2.78431C321.904 2.78431 322.442 2.94761 322.9 3.25355C323.358 3.5595 323.715 3.99435 323.926 4.50311C324.136 5.01188 324.192 5.57171 324.084 6.11182C323.977 6.65192 323.712 7.14804 323.322 7.53743C322.933 7.92682 322.437 8.192 321.897 8.29943C321.356 8.40687 320.797 8.35173 320.288 8.14099C319.779 7.93025 319.344 7.57338 319.038 7.11551C318.732 6.65763 318.569 6.11931 318.569 5.56862C318.571 4.83094 318.866 4.12416 319.387 3.60254C319.909 3.08091 320.616 2.78677 321.353 2.78431ZM321.353 16.1883C320.253 16.1833 319.171 15.91 318.201 15.3921C317.231 14.8743 316.401 14.1275 315.785 13.2166C315.829 11.3603 319.497 10.3385 321.353 10.3385C323.21 10.3385 326.877 11.3603 326.922 13.2166C326.305 14.1268 325.475 14.8731 324.505 15.3908C323.535 15.9086 322.453 16.1823 321.353 16.1883Z" fill="#3F3D56"/>
<path d="M428.085 101.627C426.249 101.627 424.455 102.172 422.928 103.191C421.402 104.211 420.213 105.661 419.51 107.357C418.808 109.052 418.624 110.919 418.982 112.719C419.34 114.519 420.224 116.173 421.522 117.471C422.82 118.769 424.474 119.653 426.274 120.011C428.074 120.369 429.941 120.185 431.636 119.483C433.332 118.78 434.782 117.591 435.802 116.065C436.821 114.538 437.366 112.744 437.366 110.908C437.359 108.449 436.378 106.092 434.639 104.354C432.901 102.615 430.544 101.634 428.085 101.627ZM428.085 104.412C428.635 104.412 429.174 104.575 429.632 104.881C430.089 105.187 430.446 105.622 430.657 106.13C430.868 106.639 430.923 107.199 430.816 107.739C430.708 108.279 430.443 108.775 430.054 109.165C429.664 109.554 429.168 109.819 428.628 109.927C428.088 110.034 427.528 109.979 427.019 109.768C426.51 109.557 426.076 109.201 425.77 108.743C425.464 108.285 425.3 107.747 425.3 107.196C425.303 106.458 425.597 105.751 426.119 105.23C426.64 104.708 427.347 104.414 428.085 104.412ZM428.085 117.815C426.985 117.81 425.903 117.537 424.932 117.019C423.962 116.501 423.133 115.755 422.516 114.844C422.561 112.988 426.229 111.966 428.085 111.966C429.941 111.966 433.609 112.988 433.653 114.844C433.036 115.754 432.207 116.5 431.236 117.018C430.266 117.536 429.184 117.809 428.085 117.815Z" fill="#3F3D56"/>
<path d="M445.72 164.274C443.884 164.274 442.09 164.818 440.563 165.838C439.037 166.858 437.847 168.308 437.145 170.004C436.442 171.699 436.259 173.565 436.617 175.366C436.975 177.166 437.859 178.82 439.157 180.118C440.455 181.416 442.109 182.3 443.909 182.658C445.709 183.016 447.575 182.832 449.271 182.13C450.967 181.427 452.417 180.238 453.436 178.711C454.456 177.185 455.001 175.391 455.001 173.555C454.993 171.096 454.013 168.739 452.274 167C450.535 165.262 448.179 164.281 445.72 164.274ZM445.72 167.058C446.27 167.058 446.809 167.222 447.266 167.528C447.724 167.834 448.081 168.269 448.292 168.777C448.503 169.286 448.558 169.846 448.45 170.386C448.343 170.926 448.078 171.422 447.688 171.812C447.299 172.201 446.803 172.466 446.263 172.574C445.723 172.681 445.163 172.626 444.654 172.415C444.145 172.204 443.71 171.848 443.404 171.39C443.098 170.932 442.935 170.393 442.935 169.843C442.938 169.105 443.232 168.398 443.753 167.877C444.275 167.355 444.982 167.061 445.72 167.058ZM445.72 180.462C444.62 180.457 443.538 180.184 442.567 179.666C441.597 179.148 440.767 178.402 440.151 177.491C440.196 175.635 443.863 174.613 445.72 174.613C447.576 174.613 451.244 175.635 451.288 177.491C450.671 178.401 449.841 179.147 448.871 179.665C447.901 180.183 446.819 180.456 445.72 180.462Z" fill="#3F3D56"/>
<path d="M238.881 164.12L237.93 167.932C239.008 168.2 242.33 169.297 242.869 167.139C243.43 164.89 239.959 164.388 238.881 164.12Z" fill="#3740C7"/>
<path d="M237.451 169.856L236.402 174.059C237.697 174.381 241.689 175.662 242.279 173.291C242.896 170.819 238.745 170.179 237.451 169.856Z" fill="#3740C7"/>
<path d="M243.179 152.771C239.84 151.939 236.33 152.115 233.091 153.278C229.852 154.441 227.031 156.538 224.984 159.304C222.937 162.07 221.757 165.381 221.591 168.818C221.426 172.255 222.284 175.664 224.056 178.613C225.828 181.563 228.435 183.921 231.548 185.389C234.66 186.857 238.138 187.369 241.541 186.861C244.944 186.352 248.12 184.846 250.668 182.532C253.215 180.219 255.019 177.202 255.851 173.863C256.405 171.646 256.516 169.342 256.178 167.082C255.841 164.822 255.061 162.651 253.885 160.692C252.708 158.733 251.157 157.026 249.32 155.667C247.483 154.308 245.396 153.324 243.179 152.771ZM246.642 167.174C246.391 168.869 245.452 169.69 244.204 169.977C245.917 170.869 246.788 172.237 245.958 174.608C244.928 177.553 242.479 177.801 239.224 177.185L238.433 180.352L236.524 179.876L237.303 176.752C236.795 176.626 236.287 176.494 235.782 176.357L234.999 179.496L233.092 179.02L233.882 175.848C233.436 175.733 232.983 175.612 232.521 175.496L230.037 174.876L230.984 172.691C230.984 172.691 232.391 173.066 232.372 173.038C232.459 173.066 232.551 173.076 232.643 173.069C232.734 173.061 232.823 173.035 232.904 172.993C232.985 172.951 233.058 172.893 233.116 172.823C233.175 172.753 233.22 172.671 233.247 172.584L234.496 167.578C234.566 167.595 234.634 167.612 234.697 167.628C234.633 167.603 234.566 167.582 234.499 167.565L235.39 163.991C235.416 163.726 235.338 163.462 235.171 163.254C235.005 163.047 234.764 162.913 234.5 162.881C234.53 162.861 233.113 162.536 233.113 162.536L233.621 160.497L236.255 161.154L236.253 161.164C236.648 161.262 237.056 161.356 237.472 161.45L238.255 158.315L240.163 158.79L239.396 161.865C239.908 161.982 240.424 162.1 240.926 162.224L241.688 159.171L243.597 159.646L242.815 162.783C245.225 163.613 246.988 164.858 246.642 167.174Z" fill="#3740C7"/>
<path d="M70.5358 340.286C69.2153 352.294 -0.104924 351.286 0.000119259 340.286C1.32052 328.279 70.6408 329.287 70.5358 340.286Z" fill="#E6E6E6"/>
<path d="M48.1475 310.059L50.9578 316.147L56.1092 315.679L59.3877 304.907L54.2358 302.097L48.1475 310.059Z" fill="#3740C7"/>
<path d="M30.4615 324.081L30.3506 328.324L38.3123 328.792V323.641L30.4615 324.081Z" fill="#FFB8B8"/>
<path d="M33.1604 246.833L35.0338 284.3L30.3506 325.046L44.4007 326.919L53.2993 275.402L56.1092 240.276L33.1604 246.833Z" fill="#2F2E41"/>
<path d="M11.1481 233.251C11.1481 233.251 5.52797 270.25 17.2365 282.426C28.9451 294.603 44.8687 316.147 44.8687 316.147L56.1089 302.097L27.54 271.655L33.1601 251.048L56.1089 240.276L52.3622 214.517L18.6415 214.049L11.1481 233.251Z" fill="#2F2E41"/>
<path d="M38.7801 147.544C44.4706 147.544 49.0836 142.931 49.0836 137.241C49.0836 131.55 44.4706 126.937 38.7801 126.937C33.0896 126.937 28.4766 131.55 28.4766 137.241C28.4766 142.931 33.0896 147.544 38.7801 147.544Z" fill="#FFB8B8"/>
<path d="M29.8824 139.583C29.8824 139.583 29.4141 154.101 27.0724 155.974C24.7307 157.848 35.5025 165.81 35.5025 165.81L42.5277 154.569V144.266L29.8824 139.583Z" fill="#FFB8B8"/>
<path d="M34.5653 159.253L28.8792 150.667L25.6666 155.038L20.9834 168.152L24.7302 219.2L46.742 219.669L49.5523 161.126L42.527 152.696L34.5653 159.253Z" fill="#D0CDE1"/>
<path d="M58.451 162.531L62.1977 162.063C62.1977 162.063 63.1344 162.531 63.6027 165.81C64.0711 169.088 69.6912 198.125 69.6912 198.125L62.1977 233.719L53.7676 222.479L58.9193 202.809L53.7676 183.138L58.451 162.531Z" fill="#2F2E41"/>
<path d="M10.6808 162.062H7.87052L0.845703 199.998L7.40229 229.504L13.9589 218.732L12.0855 207.024L13.0224 196.72L16.301 190.631L10.6808 162.062Z" fill="#2F2E41"/>
<path d="M52.3628 314.274C52.3628 314.274 49.5527 313.337 49.5527 315.211C49.5527 317.084 51.4261 322.704 51.4261 322.704C51.4261 322.704 48.6161 340.033 52.8311 339.096C57.0462 338.159 60.3246 330.197 60.7929 327.856C61.2613 325.514 63.603 313.337 63.603 313.337C63.603 313.337 67.3497 304.439 65.008 303.97C62.6663 303.502 56.1095 301.629 56.1095 301.629C56.1095 301.629 59.8563 313.337 52.3628 314.274Z" fill="#2F2E41"/>
<path d="M38.7808 328.793C38.7808 328.793 31.2873 324.109 29.8823 327.856C28.9505 330.589 28.3222 333.416 28.0089 336.286C28.0089 336.286 26.1356 342.375 33.629 341.438C41.1225 340.501 40.1858 340.501 40.6542 337.691C41.1225 334.881 38.7808 328.793 38.7808 328.793Z" fill="#2F2E41"/>
<path d="M32.6918 137.241L34.5652 136.772C34.5652 136.772 35.9702 128.81 39.2486 129.747C42.527 130.684 50.9571 131.621 50.9571 127.874C50.9571 124.127 42.9953 120.849 38.3119 121.317C33.6285 121.785 25.6667 123.19 26.135 130.215C26.6033 137.241 29.6254 144.075 29.6254 144.075L29.8695 139.909L32.6918 137.241Z" fill="#2F2E41"/>
<path d="M42.5272 164.873L34.5654 159.253L42.5272 152.696L45.2915 156.013L42.5272 164.873Z" fill="#D0CDE1"/>
<path d="M27.5394 164.405L34.5647 159.253L28.9445 150.823L25.666 155.038L27.5394 164.405Z" fill="#D0CDE1"/>
<path d="M61.7293 162.063L46.7423 155.974L43.2298 153.398L32.6921 199.998L25.667 178.923L27.7745 151.993L8.33831 162.063L14.8951 193.91L15.8318 206.087L13.0217 215.922C13.0217 215.922 3.18657 222.947 6.46496 230.441C9.74335 237.934 13.4901 238.402 13.4901 238.402C13.4901 238.402 29.4137 223.416 30.3504 219.669C31.2871 215.922 32.6921 209.365 32.6921 209.365C32.6921 209.365 40.6539 239.339 50.0207 238.871C59.3875 238.402 59.3876 228.567 59.3876 228.567L57.0458 218.264L53.2991 207.492L55.1725 189.695L61.7293 162.063Z" fill="#2F2E41"/>
</g>
<defs>
<clipPath id="clip0">
<rect width="455" height="348.918" fill="white"/>
</clipPath>
</defs>
</svg>
