<svg width="40" height="40" viewBox="0 0 40 40" fill="none" xmlns="http://www.w3.org/2000/svg">
<path d="M20 40C31.0457 40 40 31.0457 40 20C40 8.9543 31.0457 0 20 0C8.9543 0 0 8.9543 0 20C0 31.0457 8.9543 40 20 40Z" fill="#4D4CBB"/>
<g clip-path="url(#clip0_2895_2331)">
<path d="M28.0686 15.2028C27.7749 14.9058 27.4226 14.6711 27.0333 14.5132C26.644 14.3552 26.226 14.2773 25.8051 14.2843H17.7385V11.349C17.733 11.0532 17.7873 10.7592 17.8985 10.4844C18.0096 10.2095 18.1753 9.95913 18.3859 9.74799C18.5964 9.53685 18.8476 9.36913 19.1248 9.25464C19.402 9.14015 19.6995 9.08119 20.0001 9.08119C20.3007 9.08119 20.5982 9.14015 20.8754 9.25464C21.1525 9.36913 21.4037 9.53685 21.6143 9.74799C21.8249 9.95913 21.9905 10.2095 22.1017 10.4844C22.2129 10.7592 22.2672 11.0532 22.2617 11.349V12.9227H24.4179V11.349C24.4256 10.7731 24.3171 10.2014 24.0986 9.66709C23.88 9.13279 23.5559 8.64655 23.1449 8.23658C22.7339 7.82661 22.2442 7.50109 21.7044 7.27891C21.1645 7.05673 20.5852 6.94232 20.0001 6.94232C19.415 6.94232 18.8357 7.05673 18.2958 7.27891C17.756 7.50109 17.2663 7.82661 16.8553 8.23658C16.4443 8.64655 16.1202 9.13279 15.9016 9.66709C15.6831 10.2014 15.5746 10.7731 15.5823 11.349V16.4343H25.8051C25.9405 16.4325 26.075 16.4571 26.2007 16.5068C26.3264 16.5564 26.4409 16.6302 26.5375 16.7236C26.6361 16.8136 26.7142 16.923 26.7669 17.0448C26.8195 17.1665 26.8455 17.2978 26.8431 17.4301V26.2115C26.8417 26.4821 26.7319 26.7412 26.5375 26.9325C26.3431 27.1238 26.0799 27.2319 25.8051 27.2333H14.1951C13.9204 27.2315 13.6574 27.1233 13.4631 26.9321C13.2689 26.7408 13.1589 26.482 13.1571 26.2115V17.4301C13.1542 17.2973 13.18 17.1654 13.2327 17.0431C13.2853 16.9208 13.3637 16.8109 13.4627 16.7206C13.5593 16.6271 13.6737 16.5534 13.7995 16.5037C13.9252 16.4541 14.0597 16.4294 14.1951 16.4313V16.4313V14.2858C13.7741 14.2789 13.3562 14.3567 12.9669 14.5147C12.5776 14.6726 12.2253 14.9073 11.9316 15.2043C11.6299 15.4933 11.3915 15.8399 11.231 16.223C11.0706 16.606 10.9914 17.0174 10.9985 17.4316V26.2115C10.991 26.6259 11.07 27.0373 11.2305 27.4204C11.391 27.8035 11.6296 28.1501 11.9316 28.4388C12.225 28.7362 12.5773 28.9711 12.9666 29.1291C13.356 29.2871 13.7741 29.3648 14.1951 29.3573H25.8051C26.2252 29.359 26.6415 29.2788 27.03 29.1213C27.4185 28.9639 27.7714 28.7322 28.0685 28.4397C28.3655 28.1473 28.6008 27.7998 28.7607 27.4173C28.9206 27.0349 29.0019 26.6251 29.0001 26.2115V17.4301C29.0074 17.0159 28.9285 16.6047 28.7683 16.2216C28.6081 15.8386 28.37 15.4919 28.0686 15.2028V15.2028Z" fill="white"/>
<path d="M21.3888 25.1545L20.6423 23.4132C20.8499 23.3028 21.0237 23.1398 21.1457 22.941C21.2676 22.7422 21.3333 22.5149 21.3359 22.2827C21.3275 21.9394 21.183 21.6128 20.9334 21.3729C20.6837 21.133 20.3486 20.9987 19.9997 20.9987C19.6508 20.9987 19.3157 21.133 19.066 21.3729C18.8163 21.6128 18.6718 21.9394 18.6634 22.2827C18.666 22.5149 18.7317 22.7422 18.8537 22.941C18.9757 23.1398 19.1494 23.3028 19.357 23.4132L18.6113 25.1545H21.3888Z" fill="white"/>
</g>
<defs>
<clipPath id="clip0_2895_2331">
<rect width="18" height="22.3542" fill="white" transform="translate(11 7)"/>
</clipPath>
</defs>
</svg>
